<mxfile host="65bd71144e" modified="2020-11-01T15:52:11.655Z" agent="5.0 (Windows NT 10.0; Win64; x64) AppleWebKit/537.36 (KHTML, like Gecko) Code/1.50.1 Chrome/83.0.4103.122 Electron/9.2.1 Safari/537.36" etag="WriaJLDbnI-6W7q658uW" version="13.6.5">
    <diagram id="89ALrGFS0kkMq1uWzrs-" name="Page-1">
        <mxGraphModel dx="940" dy="441" grid="1" gridSize="10" guides="1" tooltips="1" connect="1" arrows="1" fold="1" page="1" pageScale="1" pageWidth="850" pageHeight="1100" math="0" shadow="0">
            <root>
                <mxCell id="0"/>
                <mxCell id="1" parent="0"/>
                <mxCell id="2" value="&lt;h1&gt;Anonymous mode - UIMiscAnon&lt;/h1&gt;&lt;p&gt;Aim of this is so that user can switch between anonymous and non anonymous mode for games/chat.&lt;/p&gt;&lt;p&gt;Clear indication must be shown if user/player is talking Anonymously or as him/herself&lt;/p&gt;" style="text;html=1;strokeColor=none;fillColor=none;spacing=5;spacingTop=-20;whiteSpace=wrap;overflow=hidden;rounded=0;" parent="1" vertex="1">
                    <mxGeometry x="50" y="40" width="750" height="120" as="geometry"/>
                </mxCell>
                <mxCell id="7" style="edgeStyle=orthogonalEdgeStyle;rounded=0;orthogonalLoop=1;jettySize=auto;html=1;" edge="1" parent="1" source="3">
                    <mxGeometry relative="1" as="geometry">
                        <mxPoint x="390" y="320" as="targetPoint"/>
                    </mxGeometry>
                </mxCell>
                <mxCell id="3" value="Anonymous/user" style="html=1;whiteSpace=wrap;container=1;recursiveResize=0;collapsible=0;" vertex="1" parent="1">
                    <mxGeometry x="270" y="160" width="240" height="70" as="geometry"/>
                </mxCell>
                <mxCell id="6" value="" style="html=1;aspect=fixed;strokeColor=none;shadow=0;align=center;verticalAlign=top;fillColor=#F4AF20;shape=mxgraph.gcp2.check" vertex="1" parent="3">
                    <mxGeometry x="190" y="30" width="37.5" height="30" as="geometry"/>
                </mxCell>
                <mxCell id="11" value="" style="edgeStyle=orthogonalEdgeStyle;rounded=0;orthogonalLoop=1;jettySize=auto;html=1;" edge="1" parent="1" source="8" target="10">
                    <mxGeometry relative="1" as="geometry"/>
                </mxCell>
                <mxCell id="8" value="Store: Auth&lt;br&gt;Mutation: UPDATE_ANON&lt;br&gt;State:&amp;nbsp;anonymous" style="rounded=1;whiteSpace=wrap;html=1;" vertex="1" parent="1">
                    <mxGeometry x="250" y="320" width="280" height="90" as="geometry"/>
                </mxCell>
                <mxCell id="10" value="Back to component&lt;br&gt;change icon&lt;br&gt;change theme" style="whiteSpace=wrap;html=1;rounded=1;" vertex="1" parent="1">
                    <mxGeometry x="330" y="460" width="120" height="60" as="geometry"/>
                </mxCell>
            </root>
        </mxGraphModel>
    </diagram>
</mxfile>